<svg width="28" height="32" viewBox="0 0 28 32" fill="none" xmlns="http://www.w3.org/2000/svg">
<path fill-rule="evenodd" clip-rule="evenodd" d="M4.59012 5.24586H23.2421V24.4807H4.59012V5.24586Z" fill="#BD7575"/>
<path fill-rule="evenodd" clip-rule="evenodd" d="M0 24.4344C0 23.1443 1.0346 21.974 2.31358 21.8202L13.9161 20.4254L25.5186 21.8202C26.7964 21.9738 27.8322 23.1404 27.8322 24.4344V31.5H0V24.4344Z" fill="#FF78C7"/>
<path fill-rule="evenodd" clip-rule="evenodd" d="M10.2996 19.5208C7.4412 17.4902 5.46445 13.3602 5.46445 9.98649C5.46445 5.31876 9.24839 1.53482 13.9161 1.53482C18.5838 1.53482 22.3678 5.31876 22.3678 9.98649C22.3678 13.3602 20.391 17.4902 17.5326 19.5208V23.843C17.5326 23.843 15.081 24.956 13.9161 24.956C12.7513 24.956 10.2996 23.843 10.2996 23.843V19.5208Z" fill="#FFDD95"/>
<path d="M6.33874 13.4061C7.30448 13.4061 8.08736 12.6232 8.08736 11.6575C8.08736 10.6917 7.30448 9.90886 6.33874 9.90886C5.373 9.90886 4.59012 10.6917 4.59012 11.6575C4.59012 12.6232 5.373 13.4061 6.33874 13.4061Z" fill="#FFDD95"/>
<path d="M21.4935 13.4061C22.4592 13.4061 23.2421 12.6232 23.2421 11.6575C23.2421 10.6917 22.4592 9.90886 21.4935 9.90886C20.5277 9.90886 19.7448 10.6917 19.7448 11.6575C19.7448 12.6232 20.5277 13.4061 21.4935 13.4061Z" fill="#FFDD95"/>
<path fill-rule="evenodd" clip-rule="evenodd" d="M4.59012 3.78868C4.59012 1.69625 6.28652 0 8.37586 0H19.4563C21.5471 0 23.2421 1.70051 23.2421 3.78868V7.57736L13.9161 4.12627L4.59012 7.57736V3.78868Z" fill="#BD7575"/>
</svg>
