<svg width="28" height="36" viewBox="0 0 28 36" fill="none" xmlns="http://www.w3.org/2000/svg">
<path fill-rule="evenodd" clip-rule="evenodd" d="M0 25.3465C0 24.0102 1.04084 22.7979 2.32753 22.6384L14 21.1913L25.6725 22.6384C26.9579 22.7978 28 24.0072 28 25.3465V35.1H0V25.3465Z" fill="#595959"/>
<path fill-rule="evenodd" clip-rule="evenodd" d="M14.0733 35.0132L9.3822 27.7419H18.7644L14.0733 35.0132Z" fill="#D8D8D8"/>
<path fill-rule="evenodd" clip-rule="evenodd" d="M9.3622 19.4009C7.03542 17.1242 5.49738 13.4391 5.49738 10.3609C5.49738 5.51816 9.30413 1.59235 14 1.59235C18.6959 1.59235 22.5026 5.51816 22.5026 10.3609C22.5026 13.4391 20.9646 17.1242 18.6378 19.4009V24.7369C18.6378 24.7369 15.4938 25.8917 14 25.8917C12.5062 25.8917 9.3622 24.7369 9.3622 24.7369V19.4009Z" fill="#FFDD95"/>
<path fill-rule="evenodd" clip-rule="evenodd" d="M14.0733 23.585L9.3822 27.757H18.7644L14.0733 23.585Z" fill="#D8D8D8"/>
<path fill-rule="evenodd" clip-rule="evenodd" d="M12.3147 23.5844H15.8278L16.4142 25.3986L15.2343 26.6081H12.9251L11.7283 25.3986L12.3147 23.5844Z" fill="#4796E7"/>
<path fill-rule="evenodd" clip-rule="evenodd" d="M9.3822 21.7702L14.0721 23.6479L9.3822 27.7703V21.7702Z" fill="white"/>
<path fill-rule="evenodd" clip-rule="evenodd" d="M18.8119 21.7702L14.0733 23.6213L18.8119 27.7703V21.7702Z" fill="white"/>
<path d="M5.79057 13.9088C6.76212 13.9088 7.54973 13.0965 7.54973 12.0946C7.54973 11.0926 6.76212 10.2804 5.79057 10.2804C4.81901 10.2804 4.0314 11.0926 4.0314 12.0946C4.0314 13.0965 4.81901 13.9088 5.79057 13.9088Z" fill="#FFDD95"/>
<path d="M22.2094 13.9088C23.181 13.9088 23.9686 13.0965 23.9686 12.0946C23.9686 11.0926 23.181 10.2804 22.2094 10.2804C21.2379 10.2804 20.4503 11.0926 20.4503 12.0946C20.4503 13.0965 21.2379 13.9088 22.2094 13.9088Z" fill="#FFDD95"/>
<path fill-rule="evenodd" clip-rule="evenodd" d="M5.79059 3.32601C5.79059 1.4891 7.23184 0 9.0163 0H24.555V3.32601C24.555 5.16291 23.1137 6.65201 21.3293 6.65201H5.79059V3.32601Z" fill="#FFAF40"/>
<path fill-rule="evenodd" clip-rule="evenodd" d="M12.9005 26.608H15.2461L15.8325 35.0742H12.3141L12.9005 26.608Z" fill="#4796E7"/>
</svg>
