<svg width="17" height="23" viewBox="0 0 17 23" fill="none" xmlns="http://www.w3.org/2000/svg">
<path d="M8.5 17C13.1944 17 17 13.1944 17 8.5C17 3.80558 13.1944 0 8.5 0C3.80558 0 0 3.80558 0 8.5C0 13.1944 3.80558 17 8.5 17Z" fill="#5EA7FF"/>
<mask id="mask0_250_649" style="mask-type:luminance" maskUnits="userSpaceOnUse" x="0" y="0" width="17" height="17">
<path d="M8.5 17C13.1944 17 17 13.1944 17 8.5C17 3.80558 13.1944 0 8.5 0C3.80558 0 0 3.80558 0 8.5C0 13.1944 3.80558 17 8.5 17Z" fill="white"/>
</mask>
<g mask="url(#mask0_250_649)">
<path fill-rule="evenodd" clip-rule="evenodd" d="M12.9859 6.02282C12.9859 6.02282 10.9218 5.18045 10.307 5.60163C9.69222 6.02282 10.0207 8.0116 10.0207 8.0116C10.0207 8.0116 9.10438 9.3248 9.56252 10.0155C10.0207 10.7062 11.2933 10.4687 12.0083 11.078C12.7233 11.6872 12.4262 12.7806 12.4262 12.7806L12.2533 14.0572C12.2533 14.0572 14.1684 13.199 14.7202 11.9627C15.272 10.7263 15.0933 8.78795 15.0933 8.78795L16.2111 7.7745L17.194 4.58678L13.7446 3.47122L13.3646 1.77098L10.8979 2.47016L10.675 4.32459L12.5696 4.95187L12.9859 6.02282ZM-0.641296 7.09775C-0.641296 7.09775 0.056391 6.65292 0.149512 6.64585C0.863924 6.59154 3.35341 6.74341 4.00431 5.79976C4.74006 4.7331 5.35337 3.32065 5.35337 3.32065L5.32873 2.2339L1.4817 1.28979L-0.641296 7.09775Z" fill="#E8E8E8"/>
</g>
<path fill-rule="evenodd" clip-rule="evenodd" d="M4.7356 14.9016L5.0298 11.6525L2.66627 9.8431C2.66627 9.8431 2.52977 8.39513 4.24531 8.19051C5.96086 7.98589 7.01782 9.04699 7.01782 9.04699C7.01782 9.04699 7.69889 10.101 7.4449 10.8169C7.1909 11.5329 6.53374 12.6051 6.53374 12.6051C6.53374 12.6051 6.48161 13.8232 6.03622 14.392C5.59082 14.9609 4.7356 14.9016 4.7356 14.9016Z" fill="#E8E8E8"/>
<path fill-rule="evenodd" clip-rule="evenodd" d="M5.8013 16.7196L5.24438 16.1627L6.24612 15.1609L6.80304 15.7179C7.10263 15.5291 7.43585 15.3888 7.79169 15.3081V14.5208H9.20835V15.3081C9.56419 15.3888 9.89741 15.5291 10.197 15.7179L10.7539 15.1609L11.7557 16.1627L11.1987 16.7196C11.3875 17.0192 11.5278 17.3524 11.6085 17.7083H12.3959V19.1249H11.6085C11.5278 19.4808 11.3875 19.814 11.1987 20.1136L11.7557 20.6705L10.7539 21.6722L10.197 21.1153C9.89741 21.3041 9.56419 21.4444 9.20835 21.5251V22.3124H7.79169V21.5251C7.43585 21.4444 7.10263 21.3041 6.80304 21.1153L6.24612 21.6722L5.24438 20.6705L5.8013 20.1136C5.61252 19.814 5.47225 19.4808 5.39151 19.1249H4.60419V17.7083H5.39151C5.47225 17.3524 5.61252 17.0192 5.8013 16.7196ZM8.50002 19.4791C9.08682 19.4791 9.56252 19.0034 9.56252 18.4166C9.56252 17.8298 9.08682 17.3541 8.50002 17.3541C7.91322 17.3541 7.43752 17.8298 7.43752 18.4166C7.43752 19.0034 7.91322 19.4791 8.50002 19.4791Z" fill="#9F5757"/>
</svg>
