<svg width="18" height="23" viewBox="0 0 18 23" fill="none" xmlns="http://www.w3.org/2000/svg">
<path fill-rule="evenodd" clip-rule="evenodd" d="M2 10.3999H5.6V15.5999H3.8C2.80589 15.5999 2 14.7931 2 13.8031V10.3999Z" stroke="#9C4D4D" stroke-width="3.12838" stroke-linecap="round" stroke-linejoin="round"/>
<path fill-rule="evenodd" clip-rule="evenodd" d="M5.20001 10.0005H17.2V19.197C17.2 20.5244 16.1245 21.6005 14.8005 21.6005H7.59955C6.27432 21.6005 5.20001 20.5248 5.20001 19.197V10.0005Z" fill="#BD7575"/>
<path fill-rule="evenodd" clip-rule="evenodd" d="M9.29332 0C7.91629 0 6.79999 0.831283 6.79999 2.51852C6.79999 4.20576 10.5644 8 11.2 8C11.8355 8 15.6 4.20576 15.6 2.51852C15.6 0.831283 14.4837 0 13.1067 0C12.3418 0 11.6574 0.347883 11.2 0.895551C10.7426 0.347883 10.0582 0 9.29332 0Z" fill="#FF5656"/>
<path d="M17.4 21.6011H4.6C4.26863 21.6011 4 21.8697 4 22.2011C4 22.5324 4.26863 22.8011 4.6 22.8011H17.4C17.7314 22.8011 18 22.5324 18 22.2011C18 21.8697 17.7314 21.6011 17.4 21.6011Z" fill="#BD7575"/>
</svg>
