<svg width="102" height="44" viewBox="0 0 102 44" fill="none" xmlns="http://www.w3.org/2000/svg">
<ellipse cx="49.4463" cy="13.4555" rx="49.4463" ry="13.4555" transform="matrix(0.986176 0.1657 -0.16627 0.98608 4.47449 1.07703)" fill="url(#paint0_linear_33_515)"/>
<ellipse cx="49.0964" cy="11.457" rx="49.0964" ry="11.457" transform="matrix(0.982053 -0.188606 0.189249 0.981929 0.604492 18.5197)" fill="#2F2F2F"/>
<path d="M14.1432 25.526C14.1432 24.5553 14.3532 23.692 14.7732 22.936C15.1932 22.1706 15.7765 21.578 16.5232 21.158C17.2792 20.7286 18.1332 20.514 19.0852 20.514C20.2518 20.514 21.2505 20.822 22.0812 21.438C22.9118 22.054 23.4672 22.894 23.7472 23.958H21.1152C20.9192 23.5473 20.6392 23.2346 20.2752 23.02C19.9205 22.8053 19.5145 22.698 19.0572 22.698C18.3198 22.698 17.7225 22.9546 17.2652 23.468C16.8078 23.9813 16.5792 24.6673 16.5792 25.526C16.5792 26.3846 16.8078 27.0706 17.2652 27.584C17.7225 28.0973 18.3198 28.354 19.0572 28.354C19.5145 28.354 19.9205 28.2466 20.2752 28.032C20.6392 27.8173 20.9192 27.5046 21.1152 27.094H23.7472C23.4672 28.158 22.9118 28.998 22.0812 29.614C21.2505 30.2206 20.2518 30.524 19.0852 30.524C18.1332 30.524 17.2792 30.314 16.5232 29.894C15.7765 29.4646 15.1932 28.872 14.7732 28.116C14.3532 27.36 14.1432 26.4966 14.1432 25.526ZM28.7692 30.566C28.0039 30.566 27.3132 30.4026 26.6972 30.076C26.0905 29.7493 25.6099 29.2826 25.2552 28.676C24.9099 28.0693 24.7372 27.36 24.7372 26.548C24.7372 25.7453 24.9145 25.0406 25.2692 24.434C25.6239 23.818 26.1092 23.3466 26.7252 23.02C27.3412 22.6933 28.0319 22.53 28.7972 22.53C29.5625 22.53 30.2532 22.6933 30.8692 23.02C31.4852 23.3466 31.9705 23.818 32.3252 24.434C32.6799 25.0406 32.8572 25.7453 32.8572 26.548C32.8572 27.3506 32.6752 28.06 32.3112 28.676C31.9565 29.2826 31.4665 29.7493 30.8412 30.076C30.2252 30.4026 29.5345 30.566 28.7692 30.566ZM28.7692 28.494C29.2265 28.494 29.6139 28.326 29.9312 27.99C30.2579 27.654 30.4212 27.1733 30.4212 26.548C30.4212 25.9226 30.2625 25.442 29.9452 25.106C29.6372 24.77 29.2545 24.602 28.7972 24.602C28.3305 24.602 27.9432 24.77 27.6352 25.106C27.3272 25.4326 27.1732 25.9133 27.1732 26.548C27.1732 27.1733 27.3225 27.654 27.6212 27.99C27.9292 28.326 28.3119 28.494 28.7692 28.494ZM38.8873 22.558C39.8019 22.558 40.5299 22.8566 41.0713 23.454C41.6219 24.042 41.8973 24.854 41.8973 25.89V30.454H39.5173V26.212C39.5173 25.6893 39.3819 25.2833 39.1113 24.994C38.8406 24.7046 38.4766 24.56 38.0193 24.56C37.5619 24.56 37.1979 24.7046 36.9273 24.994C36.6566 25.2833 36.5213 25.6893 36.5213 26.212V30.454H34.1273V22.642H36.5213V23.678C36.7639 23.3326 37.0906 23.062 37.5013 22.866C37.9119 22.6606 38.3739 22.558 38.8873 22.558ZM48.3209 22.558C49.2355 22.558 49.9635 22.8566 50.5049 23.454C51.0555 24.042 51.3309 24.854 51.3309 25.89V30.454H48.9509V26.212C48.9509 25.6893 48.8155 25.2833 48.5449 24.994C48.2742 24.7046 47.9102 24.56 47.4529 24.56C46.9955 24.56 46.6315 24.7046 46.3609 24.994C46.0902 25.2833 45.9549 25.6893 45.9549 26.212V30.454H43.5609V22.642H45.9549V23.678C46.1975 23.3326 46.5242 23.062 46.9349 22.866C47.3455 22.6606 47.8075 22.558 48.3209 22.558ZM60.3585 26.422C60.3585 26.646 60.3445 26.8793 60.3165 27.122H54.8985C54.9358 27.6073 55.0898 27.9806 55.3605 28.242C55.6405 28.494 55.9811 28.62 56.3825 28.62C56.9798 28.62 57.3951 28.368 57.6285 27.864H60.1765C60.0458 28.3773 59.8078 28.8393 59.4625 29.25C59.1265 29.6606 58.7018 29.9826 58.1885 30.216C57.6751 30.4493 57.1011 30.566 56.4665 30.566C55.7011 30.566 55.0198 30.4026 54.4225 30.076C53.8251 29.7493 53.3585 29.2826 53.0225 28.676C52.6865 28.0693 52.5185 27.36 52.5185 26.548C52.5185 25.736 52.6818 25.0266 53.0085 24.42C53.3445 23.8133 53.8111 23.3466 54.4085 23.02C55.0058 22.6933 55.6918 22.53 56.4665 22.53C57.2225 22.53 57.8945 22.6886 58.4825 23.006C59.0705 23.3233 59.5278 23.776 59.8545 24.364C60.1905 24.952 60.3585 25.638 60.3585 26.422ZM57.9085 25.792C57.9085 25.3813 57.7685 25.0546 57.4885 24.812C57.2085 24.5693 56.8585 24.448 56.4385 24.448C56.0371 24.448 55.6965 24.5646 55.4165 24.798C55.1458 25.0313 54.9778 25.3626 54.9125 25.792H57.9085ZM61.1454 26.548C61.1454 25.736 61.3088 25.0266 61.6354 24.42C61.9714 23.8133 62.4334 23.3466 63.0214 23.02C63.6188 22.6933 64.3001 22.53 65.0654 22.53C66.0454 22.53 66.8621 22.7866 67.5154 23.3C68.1781 23.8133 68.6121 24.5366 68.8174 25.47H66.2694C66.0548 24.8726 65.6394 24.574 65.0234 24.574C64.5848 24.574 64.2348 24.7466 63.9734 25.092C63.7121 25.428 63.5814 25.9133 63.5814 26.548C63.5814 27.1826 63.7121 27.6726 63.9734 28.018C64.2348 28.354 64.5848 28.522 65.0234 28.522C65.6394 28.522 66.0548 28.2233 66.2694 27.626H68.8174C68.6121 28.5406 68.1781 29.2593 67.5154 29.782C66.8528 30.3046 66.0361 30.566 65.0654 30.566C64.3001 30.566 63.6188 30.4026 63.0214 30.076C62.4334 29.7493 61.9714 29.2826 61.6354 28.676C61.3088 28.0693 61.1454 27.36 61.1454 26.548ZM74.452 28.424V30.454H73.234C72.366 30.454 71.6893 30.244 71.204 29.824C70.7186 29.3946 70.476 28.6993 70.476 27.738V24.63H69.524V22.642H70.476V20.738H72.87V22.642H74.438V24.63H72.87V27.766C72.87 27.9993 72.926 28.1673 73.038 28.27C73.15 28.3726 73.3366 28.424 73.598 28.424H74.452ZM78.1375 20.626V26.506C78.1375 27.094 78.2821 27.5466 78.5715 27.864C78.8608 28.1813 79.2855 28.34 79.8455 28.34C80.4055 28.34 80.8348 28.1813 81.1335 27.864C81.4321 27.5466 81.5815 27.094 81.5815 26.506V20.626H83.9755V26.492C83.9755 27.3693 83.7888 28.1113 83.4155 28.718C83.0421 29.3246 82.5381 29.782 81.9035 30.09C81.2781 30.398 80.5781 30.552 79.8035 30.552C79.0288 30.552 78.3335 30.4026 77.7175 30.104C77.1108 29.796 76.6301 29.3386 76.2755 28.732C75.9208 28.116 75.7435 27.3693 75.7435 26.492V20.626H78.1375ZM88.8346 30.566C88.1532 30.566 87.5466 30.4493 87.0146 30.216C86.4826 29.9826 86.0626 29.6653 85.7546 29.264C85.4466 28.8533 85.2739 28.396 85.2366 27.892H87.6026C87.6306 28.1626 87.7566 28.382 87.9806 28.55C88.2046 28.718 88.4799 28.802 88.8066 28.802C89.1052 28.802 89.3339 28.746 89.4926 28.634C89.6606 28.5126 89.7446 28.3586 89.7446 28.172C89.7446 27.948 89.6279 27.7846 89.3946 27.682C89.1612 27.57 88.7832 27.4486 88.2606 27.318C87.7006 27.1873 87.2339 27.052 86.8606 26.912C86.4872 26.7626 86.1652 26.534 85.8946 26.226C85.6239 25.9086 85.4886 25.484 85.4886 24.952C85.4886 24.504 85.6099 24.098 85.8526 23.734C86.1046 23.3606 86.4686 23.0666 86.9446 22.852C87.4299 22.6373 88.0039 22.53 88.6666 22.53C89.6466 22.53 90.4166 22.7726 90.9766 23.258C91.5459 23.7433 91.8726 24.3873 91.9566 25.19H89.7446C89.7072 24.9193 89.5859 24.7046 89.3806 24.546C89.1846 24.3873 88.9232 24.308 88.5966 24.308C88.3166 24.308 88.1019 24.364 87.9526 24.476C87.8032 24.5786 87.7286 24.7233 87.7286 24.91C87.7286 25.134 87.8452 25.302 88.0786 25.414C88.3212 25.526 88.6946 25.638 89.1986 25.75C89.7772 25.8993 90.2486 26.0486 90.6126 26.198C90.9766 26.338 91.2939 26.5713 91.5646 26.898C91.8446 27.2153 91.9892 27.6446 91.9986 28.186C91.9986 28.6433 91.8679 29.054 91.6066 29.418C91.3546 29.7726 90.9859 30.0526 90.5006 30.258C90.0246 30.4633 89.4692 30.566 88.8346 30.566Z" fill="white"/>
<defs>
<linearGradient id="paint0_linear_33_515" x1="31.6842" y1="7.41757" x2="71.0209" y2="17.5955" gradientUnits="userSpaceOnUse">
<stop stop-color="white"/>
<stop offset="1" stop-color="#D9D9D9"/>
</linearGradient>
</defs>
</svg>
