<svg width="18" height="13" viewBox="0 0 18 13" fill="none" xmlns="http://www.w3.org/2000/svg">
<path d="M8.40668 0.805201V11.4381C8.40668 11.7526 8.66159 12.0075 8.97604 12.0075C9.29049 12.0075 9.5454 11.7526 9.5454 11.4381L9.5454 0.805201C9.5454 0.490753 9.29049 0.235843 8.97604 0.235843C8.66159 0.235842 8.40668 0.490753 8.40668 0.805201Z" fill="#FF78C7"/>
<path d="M2.16347 5.43541L6.94367 5.41627C7.25812 5.41481 7.51422 5.66852 7.51568 5.98297C7.51715 6.29741 7.26343 6.55351 6.94899 6.55498L2.21499 6.57393L3.43871 7.79766C3.66106 8.02 3.66106 8.3805 3.43871 8.60285C3.21637 8.8252 2.85587 8.8252 2.63352 8.60285L0.521407 6.49074C0.414704 6.4228 0.33211 6.32029 0.289469 6.1989C0.202959 5.99211 0.243862 5.74463 0.412177 5.57631L2.40071 3.58778C2.62306 3.36543 2.98356 3.36543 3.20591 3.58778C3.42826 3.81013 3.42826 4.17063 3.20591 4.39297L2.16347 5.43541Z" fill="#4796E7"/>
<path d="M15.8365 5.43544L11.0563 5.4163C10.7419 5.41484 10.4858 5.66855 10.4843 5.983C10.4828 6.29744 10.7366 6.55354 11.051 6.55501L15.785 6.57396L14.5613 7.79769C14.3389 8.02003 14.3389 8.38053 14.5613 8.60288C14.7836 8.82523 15.1441 8.82523 15.3665 8.60288L17.4786 6.49077C17.5853 6.42283 17.6679 6.32032 17.7105 6.19893C17.797 5.99214 17.7561 5.74466 17.5878 5.57634L15.5993 3.58781C15.3769 3.36546 15.0164 3.36546 14.7941 3.58781C14.5717 3.81016 14.5717 4.17066 14.7941 4.393L15.8365 5.43544Z" fill="#4796E7"/>
</svg>
