<svg width="17" height="13" viewBox="0 0 17 13" fill="none" xmlns="http://www.w3.org/2000/svg">
<path d="M4.54331 10.6001V11.6947H7.00611V10.6001H4.54331ZM3.44873 10.3257C3.44873 9.87256 3.81639 9.50555 4.26926 9.50555H7.28017C7.73309 9.50555 8.10069 9.87431 8.10069 10.3257V11.9692C8.10069 12.4223 7.73303 12.7893 7.28017 12.7893H4.26926C3.81634 12.7893 3.44873 12.4205 3.44873 11.9692V10.3257Z" fill="#5B68C0"/>
<path d="M0 9.04149L12.2109 0C14.6981 1.8448 16.31 4.80282 16.31 8.13732C16.31 8.54743 16.2856 8.95185 16.2382 9.34921L0.926759 11.5282L0 9.04149Z" fill="#22BA8E"/>
<mask id="mask0_23_132" style="mask-type:luminance" maskUnits="userSpaceOnUse" x="0" y="0" width="17" height="12">
<path d="M0 9.04149L12.2109 0C14.6981 1.8448 16.31 4.80282 16.31 8.13732C16.31 8.54743 16.2856 8.95185 16.2382 9.34921L0.926759 11.5282L0 9.04149Z" fill="white"/>
</mask>
<g mask="url(#mask0_23_132)">
<path fill-rule="evenodd" clip-rule="evenodd" d="M1.59642 7.21951L2.61301 9.98168L3.46405 12.2945L-0.327572 12.5151L-0.870483 9.64127L1.59642 7.21951Z" fill="#E43535"/>
</g>
</svg>
