<svg width="16" height="17" viewBox="0 0 16 17" fill="none" xmlns="http://www.w3.org/2000/svg">
<path fill-rule="evenodd" clip-rule="evenodd" d="M9.03119 6.19336H15.9981V6.96746H9.03119V6.19336Z" fill="#5B68C0"/>
<path d="M10.0633 2.32275H9.54722C9.40471 2.32275 9.28918 2.43828 9.28918 2.58079V5.67719C9.28918 5.8197 9.40471 5.93522 9.54722 5.93522H10.0633C10.2058 5.93522 10.3213 5.8197 10.3213 5.67719V2.58079C10.3213 2.43828 10.2058 2.32275 10.0633 2.32275Z" fill="#4796E7"/>
<path d="M11.8695 2.32275H11.3534C11.2109 2.32275 11.0954 2.43828 11.0954 2.58079V5.67719C11.0954 5.8197 11.2109 5.93522 11.3534 5.93522H11.8695C12.012 5.93522 12.1275 5.8197 12.1275 5.67719V2.58079C12.1275 2.43828 12.012 2.32275 11.8695 2.32275Z" fill="#4796E7"/>
<path d="M13.9338 2.32275H13.4177C13.2752 2.32275 13.1597 2.43828 13.1597 2.58079V5.67719C13.1597 5.8197 13.2752 5.93522 13.4177 5.93522H13.9338C14.0763 5.93522 14.1918 5.8197 14.1918 5.67719V2.58079C14.1918 2.43828 14.0763 2.32275 13.9338 2.32275Z" fill="#4796E7"/>
<path d="M15.74 2.32275H15.224C15.0815 2.32275 14.9659 2.43828 14.9659 2.58079V5.67719C14.9659 5.8197 15.0815 5.93522 15.224 5.93522H15.74C15.8826 5.93522 15.9981 5.8197 15.9981 5.67719V2.58079C15.9981 2.43828 15.8826 2.32275 15.74 2.32275Z" fill="#4796E7"/>
<path fill-rule="evenodd" clip-rule="evenodd" d="M12.2935 0.0537969C12.4157 -0.0184207 12.6155 -0.0174423 12.736 0.0537969L15.9176 1.93418C16.0398 2.0064 16.025 2.06494 15.8808 2.06494H9.14865C9.00618 2.06494 8.9914 2.00542 9.11194 1.93418L12.2935 0.0537969ZM0 13.1399C0 12.5688 0.458009 12.0507 1.0242 11.9826L6.16055 11.3651L11.2969 11.9826C11.8625 12.0506 12.3211 12.5671 12.3211 13.1399V16.2678H0V13.1399Z" fill="#5B68C0"/>
<path fill-rule="evenodd" clip-rule="evenodd" d="M4.11974 10.6012C3.09586 9.62976 2.41907 8.05738 2.41907 6.74393C2.41907 4.67756 4.09419 3.00244 6.16055 3.00244C8.22692 3.00244 9.90204 4.67756 9.90204 6.74393C9.90204 8.05738 9.22524 9.62976 8.20136 10.6012V12.8781C8.20136 12.8781 6.81789 13.3708 6.16055 13.3708C5.50321 13.3708 4.11974 12.8781 4.11974 12.8781V10.6012Z" fill="#FFDD95"/>
<path d="M2.54809 8.25767C2.97561 8.25767 3.32219 7.9111 3.32219 7.48357C3.32219 7.05605 2.97561 6.70947 2.54809 6.70947C2.12056 6.70947 1.77399 7.05605 1.77399 7.48357C1.77399 7.9111 2.12056 8.25767 2.54809 8.25767Z" fill="#FFDD95"/>
<path d="M9.773 8.25767C10.2005 8.25767 10.5471 7.9111 10.5471 7.48357C10.5471 7.05605 10.2005 6.70947 9.773 6.70947C9.34548 6.70947 8.9989 7.05605 8.9989 7.48357C8.9989 7.9111 9.34548 8.25767 9.773 8.25767Z" fill="#FFDD95"/>
<path fill-rule="evenodd" clip-rule="evenodd" d="M9.77301 3.74194C9.77301 2.95814 9.1388 2.32275 8.35357 2.32275H1.51594V3.74194C1.51594 4.52573 2.15015 5.16112 2.93538 5.16112H9.77301V3.74194Z" fill="#FFAF40"/>
</svg>
