<svg width="14" height="12" viewBox="0 0 14 12" fill="none" xmlns="http://www.w3.org/2000/svg">
<path fill-rule="evenodd" clip-rule="evenodd" d="M0 8.60932C0 8.03268 0.446792 7.51154 0.991072 7.44615L4.25 7.0546L7.50893 7.44615C8.05628 7.51191 8.5 8.03266 8.5 8.60932V10.4348H0V8.60932Z" fill="#80D25B"/>
<path fill-rule="evenodd" clip-rule="evenodd" d="M2.75 5.82168C1.99745 5.07925 1.5 3.87693 1.5 2.86957C1.5 1.28475 2.73122 0 4.25 0C5.76878 0 7 1.28475 7 2.86957C7 3.87693 6.50255 5.07925 5.75 5.82168V7.56522C5.75 7.56522 4.73314 7.94313 4.25 7.94313C3.76686 7.94313 2.75 7.56522 2.75 7.56522V5.82168Z" fill="#FFDD95"/>
<path d="M2 4.95651C2.41421 4.95651 2.75 4.60613 2.75 4.17391C2.75 3.74168 2.41421 3.3913 2 3.3913C1.58579 3.3913 1.25 3.74168 1.25 4.17391C1.25 4.60613 1.58579 4.95651 2 4.95651Z" fill="#FFDD95"/>
<path d="M6.5 4.95651C6.91421 4.95651 7.25 4.60613 7.25 4.17391C7.25 3.74168 6.91421 3.3913 6.5 3.3913C6.08579 3.3913 5.75 3.74168 5.75 4.17391C5.75 4.60613 6.08579 4.95651 6.5 4.95651Z" fill="#FFDD95"/>
<path fill-rule="evenodd" clip-rule="evenodd" d="M5.5 8.60932C5.5 8.03268 5.94679 7.51154 6.49107 7.44615L9.75 7.0546L13.0089 7.44615C13.5563 7.51191 14 8.03266 14 8.60932V10.4348H5.5V8.60932Z" fill="#4796E7"/>
<path fill-rule="evenodd" clip-rule="evenodd" d="M8.25 5.82168C7.49745 5.07925 7 3.87693 7 2.86957C7 1.28475 8.23122 0 9.75 0C11.2688 0 12.5 1.28475 12.5 2.86957C12.5 3.87693 12.0026 5.07925 11.25 5.82168V7.56522C11.25 7.56522 10.2331 7.94313 9.75 7.94313C9.26686 7.94313 8.25 7.56522 8.25 7.56522V5.82168Z" fill="#FFDD95"/>
<path d="M7.5 4.95651C7.91421 4.95651 8.25 4.60613 8.25 4.17391C8.25 3.74168 7.91421 3.3913 7.5 3.3913C7.08579 3.3913 6.75 3.74168 6.75 4.17391C6.75 4.60613 7.08579 4.95651 7.5 4.95651Z" fill="#FFDD95"/>
<path d="M12 4.95651C12.4142 4.95651 12.75 4.60613 12.75 4.17391C12.75 3.74168 12.4142 3.3913 12 3.3913C11.5858 3.3913 11.25 3.74168 11.25 4.17391C11.25 4.60613 11.5858 4.95651 12 4.95651Z" fill="#FFDD95"/>
<path fill-rule="evenodd" clip-rule="evenodd" d="M2.75 10.1745C2.75 9.5979 3.19679 9.07676 3.74107 9.01136L7 8.61981L10.2589 9.01136C10.8063 9.07713 11.25 9.59787 11.25 10.1745V12H2.75V10.1745Z" fill="#F5413E"/>
<path fill-rule="evenodd" clip-rule="evenodd" d="M5.5 7.3869C4.74745 6.64447 4.25 5.44214 4.25 4.43478C4.25 2.84996 5.48122 1.56522 7 1.56522C8.51878 1.56522 9.75 2.84996 9.75 4.43478C9.75 5.44214 9.25255 6.64447 8.5 7.3869V9.13043C8.5 9.13043 7.48314 9.50834 7 9.50834C6.51686 9.50834 5.5 9.13043 5.5 9.13043V7.3869Z" fill="#FFAF40"/>
<path d="M4.75 6.52173C5.16421 6.52173 5.5 6.17134 5.5 5.73912C5.5 5.3069 5.16421 4.95651 4.75 4.95651C4.33579 4.95651 4 5.3069 4 5.73912C4 6.17134 4.33579 6.52173 4.75 6.52173Z" fill="#FFAF40"/>
<path d="M9.25 6.52173C9.66421 6.52173 10 6.17134 10 5.73912C10 5.3069 9.66421 4.95651 9.25 4.95651C8.83579 4.95651 8.5 5.3069 8.5 5.73912C8.5 6.17134 8.83579 6.52173 9.25 6.52173Z" fill="#FFAF40"/>
</svg>
